<svg xmlns="http://www.w3.org/2000/svg" xmlns:xlink="http://www.w3.org/1999/xlink" width="500" zoomAndPan="magnify" viewBox="0 0 375 374.999991" height="500" preserveAspectRatio="xMidYMid meet" version="1.0"><defs><g/><clipPath id="c306f1ebe3"><path d="M 170.984375 188.492188 L 195.734375 188.492188 L 195.734375 213.992188 L 170.984375 213.992188 Z M 170.984375 188.492188 " clip-rule="nonzero"/></clipPath></defs><g fill="#e4e0d7" fill-opacity="1"><g transform="translate(109.205373, 209.261149)"><g><path d="M 10.859375 -25.046875 C 12.179688 -25.046875 13.476562 -24.847656 14.75 -24.453125 C 16.03125 -24.066406 16.976562 -23.6875 17.59375 -23.3125 L 18.484375 -22.71875 L 16.21875 -18.25 C 16.039062 -18.363281 15.789062 -18.515625 15.46875 -18.703125 C 15.15625 -18.890625 14.5625 -19.140625 13.6875 -19.453125 C 12.8125 -19.773438 11.992188 -19.9375 11.234375 -19.9375 C 10.304688 -19.9375 9.585938 -19.738281 9.078125 -19.34375 C 8.566406 -18.945312 8.3125 -18.410156 8.3125 -17.734375 C 8.3125 -17.398438 8.429688 -17.085938 8.671875 -16.796875 C 8.910156 -16.503906 9.316406 -16.195312 9.890625 -15.875 C 10.472656 -15.550781 10.984375 -15.285156 11.421875 -15.078125 C 11.859375 -14.878906 12.535156 -14.582031 13.453125 -14.1875 C 15.035156 -13.507812 16.390625 -12.585938 17.515625 -11.421875 C 18.640625 -10.265625 19.203125 -8.953125 19.203125 -7.484375 C 19.203125 -6.066406 18.945312 -4.832031 18.4375 -3.78125 C 17.925781 -2.726562 17.226562 -1.90625 16.34375 -1.3125 C 15.46875 -0.71875 14.492188 -0.273438 13.421875 0.015625 C 12.347656 0.304688 11.179688 0.453125 9.921875 0.453125 C 8.847656 0.453125 7.796875 0.34375 6.765625 0.125 C 5.734375 -0.09375 4.867188 -0.363281 4.171875 -0.6875 C 3.472656 -1.019531 2.84375 -1.34375 2.28125 -1.65625 C 1.726562 -1.976562 1.328125 -2.25 1.078125 -2.46875 L 0.6875 -2.796875 L 3.484375 -7.515625 C 3.722656 -7.316406 4.050781 -7.0625 4.46875 -6.75 C 4.882812 -6.445312 5.625 -6.035156 6.6875 -5.515625 C 7.75 -4.992188 8.691406 -4.734375 9.515625 -4.734375 C 11.878906 -4.734375 13.0625 -5.539062 13.0625 -7.15625 C 13.0625 -7.488281 12.972656 -7.800781 12.796875 -8.09375 C 12.628906 -8.382812 12.332031 -8.671875 11.90625 -8.953125 C 11.476562 -9.242188 11.097656 -9.472656 10.765625 -9.640625 C 10.441406 -9.804688 9.90625 -10.0625 9.15625 -10.40625 C 8.414062 -10.757812 7.867188 -11.023438 7.515625 -11.203125 C 6.023438 -11.941406 4.867188 -12.863281 4.046875 -13.96875 C 3.234375 -15.070312 2.828125 -16.257812 2.828125 -17.53125 C 2.828125 -19.738281 3.640625 -21.539062 5.265625 -22.9375 C 6.898438 -24.34375 8.765625 -25.046875 10.859375 -25.046875 Z M 10.859375 -25.046875 "/></g></g></g><g fill="#e4e0d7" fill-opacity="1"><g transform="translate(126.913685, 209.261149)"><g><path d="M 3.234375 -1.8125 C 1.535156 -3.320312 0.6875 -5.257812 0.6875 -7.625 C 0.6875 -10 1.570312 -11.941406 3.34375 -13.453125 C 5.113281 -14.972656 7.296875 -15.734375 9.890625 -15.734375 C 12.460938 -15.734375 14.625 -14.96875 16.375 -13.4375 C 18.132812 -11.914062 19.015625 -9.976562 19.015625 -7.625 C 19.015625 -5.28125 18.15625 -3.347656 16.4375 -1.828125 C 14.71875 -0.304688 12.535156 0.453125 9.890625 0.453125 C 7.148438 0.453125 4.929688 -0.300781 3.234375 -1.8125 Z M 7.3125 -10.21875 C 6.632812 -9.550781 6.296875 -8.6875 6.296875 -7.625 C 6.296875 -6.570312 6.625 -5.710938 7.28125 -5.046875 C 7.9375 -4.378906 8.800781 -4.046875 9.875 -4.046875 C 10.90625 -4.046875 11.753906 -4.382812 12.421875 -5.0625 C 13.085938 -5.738281 13.421875 -6.59375 13.421875 -7.625 C 13.421875 -8.6875 13.078125 -9.550781 12.390625 -10.21875 C 11.703125 -10.894531 10.863281 -11.234375 9.875 -11.234375 C 8.851562 -11.234375 8 -10.894531 7.3125 -10.21875 Z M 7.3125 -10.21875 "/></g></g></g><g fill="#e4e0d7" fill-opacity="1"><g transform="translate(144.294055, 209.261149)"><g><path d="M 1.78125 0 L 1.78125 -25.640625 L 7.0625 -25.640625 L 7.0625 0 Z M 1.78125 0 "/></g></g></g><g fill="#e4e0d7" fill-opacity="1"><g transform="translate(150.822657, 209.261149)"><g><path d="M 3.234375 -1.8125 C 1.535156 -3.320312 0.6875 -5.257812 0.6875 -7.625 C 0.6875 -10 1.570312 -11.941406 3.34375 -13.453125 C 5.113281 -14.972656 7.296875 -15.734375 9.890625 -15.734375 C 12.460938 -15.734375 14.625 -14.96875 16.375 -13.4375 C 18.132812 -11.914062 19.015625 -9.976562 19.015625 -7.625 C 19.015625 -5.28125 18.15625 -3.347656 16.4375 -1.828125 C 14.71875 -0.304688 12.535156 0.453125 9.890625 0.453125 C 7.148438 0.453125 4.929688 -0.300781 3.234375 -1.8125 Z M 7.3125 -10.21875 C 6.632812 -9.550781 6.296875 -8.6875 6.296875 -7.625 C 6.296875 -6.570312 6.625 -5.710938 7.28125 -5.046875 C 7.9375 -4.378906 8.800781 -4.046875 9.875 -4.046875 C 10.90625 -4.046875 11.753906 -4.382812 12.421875 -5.0625 C 13.085938 -5.738281 13.421875 -6.59375 13.421875 -7.625 C 13.421875 -8.6875 13.078125 -9.550781 12.390625 -10.21875 C 11.703125 -10.894531 10.863281 -11.234375 9.875 -11.234375 C 8.851562 -11.234375 8 -10.894531 7.3125 -10.21875 Z M 7.3125 -10.21875 "/></g></g></g><g fill="#e4e0d7" fill-opacity="1"><g transform="translate(168.203027, 209.261149)"><g><path d="M 11.1875 0 L 7.609375 0 L -0.59375 -15.296875 L 5.484375 -15.296875 L 9.21875 -7.03125 L 12.875 -15.296875 L 16.515625 -15.296875 L 20.1875 -7.03125 L 23.90625 -15.296875 L 29.984375 -15.296875 L 21.796875 0 L 18.21875 0 L 14.703125 -7.90625 Z M 11.1875 0 "/></g></g></g><g fill="#e4e0d7" fill-opacity="1"><g transform="translate(195.272491, 209.261149)"><g><path d="M 17.265625 -6.921875 L 6.171875 -6.921875 C 6.171875 -5.847656 6.519531 -5.050781 7.21875 -4.53125 C 7.914062 -4.007812 8.671875 -3.75 9.484375 -3.75 C 10.335938 -3.75 11.007812 -3.863281 11.5 -4.09375 C 12 -4.320312 12.566406 -4.773438 13.203125 -5.453125 L 17.015625 -3.546875 C 15.429688 -0.878906 12.789062 0.453125 9.09375 0.453125 C 6.789062 0.453125 4.8125 -0.335938 3.15625 -1.921875 C 1.507812 -3.503906 0.6875 -5.40625 0.6875 -7.625 C 0.6875 -9.851562 1.507812 -11.757812 3.15625 -13.34375 C 4.8125 -14.9375 6.789062 -15.734375 9.09375 -15.734375 C 11.519531 -15.734375 13.492188 -15.03125 15.015625 -13.625 C 16.535156 -12.226562 17.296875 -10.226562 17.296875 -7.625 C 17.296875 -7.269531 17.285156 -7.035156 17.265625 -6.921875 Z M 6.3125 -9.84375 L 12.140625 -9.84375 C 12.015625 -10.632812 11.695312 -11.242188 11.1875 -11.671875 C 10.6875 -12.097656 10.035156 -12.3125 9.234375 -12.3125 C 8.367188 -12.3125 7.675781 -12.082031 7.15625 -11.625 C 6.632812 -11.164062 6.351562 -10.570312 6.3125 -9.84375 Z M 6.3125 -9.84375 "/></g></g></g><g fill="#e4e0d7" fill-opacity="1"><g transform="translate(210.923739, 209.261149)"><g><path d="M 17.53125 -13.375 C 18.957031 -11.8125 19.671875 -9.894531 19.671875 -7.625 C 19.671875 -5.363281 18.957031 -3.453125 17.53125 -1.890625 C 16.101562 -0.328125 14.285156 0.453125 12.078125 0.453125 C 10.046875 0.453125 8.375 -0.273438 7.0625 -1.734375 L 7 -1.734375 L 7 0 L 1.78125 0 L 1.78125 -25.640625 L 7.0625 -25.640625 L 7.0625 -13.828125 C 8.375 -15.097656 10.046875 -15.734375 12.078125 -15.734375 C 14.285156 -15.734375 16.101562 -14.945312 17.53125 -13.375 Z M 13.09375 -5.046875 C 13.75 -5.710938 14.078125 -6.570312 14.078125 -7.625 C 14.078125 -8.6875 13.734375 -9.550781 13.046875 -10.21875 C 12.359375 -10.894531 11.507812 -11.234375 10.5 -11.234375 C 9.5 -11.234375 8.65625 -10.894531 7.96875 -10.21875 C 7.289062 -9.550781 6.953125 -8.6875 6.953125 -7.625 C 6.953125 -6.59375 7.28125 -5.738281 7.9375 -5.0625 C 8.601562 -4.382812 9.457031 -4.046875 10.5 -4.046875 C 11.570312 -4.046875 12.4375 -4.378906 13.09375 -5.046875 Z M 13.09375 -5.046875 "/></g></g></g><g fill="#e4e0d7" fill-opacity="1"><g transform="translate(228.959993, 209.261149)"><g><path d="M 1.78125 0 L 1.78125 -25.640625 L 7.0625 -25.640625 L 7.0625 -13.6875 L 7.125 -13.6875 C 8.5 -15.050781 9.957031 -15.734375 11.5 -15.734375 C 12.257812 -15.734375 13.007812 -15.632812 13.75 -15.4375 C 14.5 -15.238281 15.21875 -14.929688 15.90625 -14.515625 C 16.59375 -14.097656 17.148438 -13.503906 17.578125 -12.734375 C 18.003906 -11.972656 18.21875 -11.085938 18.21875 -10.078125 L 18.21875 0 L 12.9375 0 L 12.9375 -8.640625 C 12.9375 -9.441406 12.679688 -10.140625 12.171875 -10.734375 C 11.671875 -11.328125 11.015625 -11.625 10.203125 -11.625 C 9.398438 -11.625 8.675781 -11.316406 8.03125 -10.703125 C 7.382812 -10.085938 7.0625 -9.398438 7.0625 -8.640625 L 7.0625 0 Z M 1.78125 0 "/></g></g></g><g fill="#e4e0d7" fill-opacity="1"><g transform="translate(246.340363, 209.261149)"><g><path d="M 2.828125 -1.90625 C 1.398438 -3.476562 0.6875 -5.394531 0.6875 -7.65625 C 0.6875 -9.925781 1.398438 -11.835938 2.828125 -13.390625 C 4.265625 -14.953125 6.082031 -15.734375 8.28125 -15.734375 C 10.3125 -15.734375 11.984375 -15.007812 13.296875 -13.5625 L 13.359375 -13.5625 L 13.359375 -15.296875 L 18.578125 -15.296875 L 18.578125 7.75 L 13.296875 7.75 L 13.296875 -1.453125 C 11.984375 -0.179688 10.3125 0.453125 8.28125 0.453125 C 6.082031 0.453125 4.265625 -0.332031 2.828125 -1.90625 Z M 7.28125 -10.234375 C 6.625 -9.566406 6.296875 -8.707031 6.296875 -7.65625 C 6.296875 -6.601562 6.632812 -5.738281 7.3125 -5.0625 C 8 -4.382812 8.851562 -4.046875 9.875 -4.046875 C 10.863281 -4.046875 11.703125 -4.382812 12.390625 -5.0625 C 13.078125 -5.738281 13.421875 -6.601562 13.421875 -7.65625 C 13.421875 -8.695312 13.085938 -9.550781 12.421875 -10.21875 C 11.753906 -10.894531 10.90625 -11.234375 9.875 -11.234375 C 8.800781 -11.234375 7.9375 -10.898438 7.28125 -10.234375 Z M 7.28125 -10.234375 "/></g></g></g><g fill="#e4e0d7" fill-opacity="1"><g transform="translate(264.376616, 209.261149)"><g><path d="M 5.1875 -6.375 C 6.144531 -6.375 6.953125 -6.039062 7.609375 -5.375 C 8.273438 -4.707031 8.609375 -3.898438 8.609375 -2.953125 C 8.609375 -2.015625 8.273438 -1.210938 7.609375 -0.546875 C 6.953125 0.117188 6.144531 0.453125 5.1875 0.453125 C 4.25 0.453125 3.445312 0.117188 2.78125 -0.546875 C 2.113281 -1.210938 1.78125 -2.015625 1.78125 -2.953125 C 1.78125 -3.898438 2.113281 -4.707031 2.78125 -5.375 C 3.445312 -6.039062 4.25 -6.375 5.1875 -6.375 Z M 5.1875 -6.375 "/></g></g></g><g clip-path="url(#c306f1ebe3)"><path fill="#000000" d="M 195.730469 201.042969 L 192.082031 201.042969 C 185.832031 199.6875 184.445312 198.289062 183.09375 192.011719 L 183.09375 188.492188 L 182.628906 188.492188 L 182.628906 192.046875 C 181.28125 198.292969 179.882812 199.691406 173.648438 201.042969 L 170.984375 201.042969 L 170.984375 201.507812 L 173.648438 201.507812 C 179.882812 202.859375 181.28125 204.257812 182.628906 210.503906 L 182.628906 213.992188 L 183.09375 213.992188 L 183.09375 210.539062 C 184.445312 204.261719 185.832031 202.863281 192.082031 201.507812 L 195.730469 201.507812 Z M 195.730469 201.042969 " fill-opacity="1" fill-rule="nonzero"/></g></svg>