<svg xmlns="http://www.w3.org/2000/svg" xmlns:xlink="http://www.w3.org/1999/xlink" width="500" zoomAndPan="magnify" viewBox="0 0 375 374.999991" height="500" preserveAspectRatio="xMidYMid meet" version="1.0"><defs><g/><clipPath id="630b72e95d"><path d="M 166.433594 135.558594 L 219.683594 135.558594 L 219.683594 190.308594 L 166.433594 190.308594 Z M 166.433594 135.558594 " clip-rule="nonzero"/></clipPath></defs><g fill="#000000" fill-opacity="1"><g transform="translate(159.666615, 212.473755)"><g><path d="M 30.140625 -69.5625 C 33.835938 -69.5625 37.453125 -69.019531 40.984375 -67.9375 C 44.523438 -66.863281 47.148438 -65.804688 48.859375 -64.765625 L 51.34375 -63.109375 L 45.046875 -50.6875 C 44.554688 -51.007812 43.867188 -51.429688 42.984375 -51.953125 C 42.097656 -52.484375 40.441406 -53.191406 38.015625 -54.078125 C 35.585938 -54.960938 33.320312 -55.40625 31.21875 -55.40625 C 28.625 -55.40625 26.625 -54.851562 25.21875 -53.75 C 23.8125 -52.644531 23.109375 -51.15625 23.109375 -49.28125 C 23.109375 -48.332031 23.4375 -47.457031 24.09375 -46.65625 C 24.757812 -45.863281 25.890625 -45.007812 27.484375 -44.09375 C 29.085938 -43.1875 30.5 -42.457031 31.71875 -41.90625 C 32.9375 -41.351562 34.8125 -40.523438 37.34375 -39.421875 C 41.757812 -37.546875 45.523438 -34.992188 48.640625 -31.765625 C 51.765625 -28.535156 53.328125 -24.875 53.328125 -20.78125 C 53.328125 -16.863281 52.625 -13.441406 51.21875 -10.515625 C 49.8125 -7.585938 47.878906 -5.296875 45.421875 -3.640625 C 42.960938 -1.984375 40.242188 -0.753906 37.265625 0.046875 C 34.285156 0.847656 31.054688 1.25 27.578125 1.25 C 24.597656 1.25 21.671875 0.941406 18.796875 0.328125 C 15.929688 -0.273438 13.53125 -1.03125 11.59375 -1.9375 C 9.664062 -2.851562 7.925781 -3.753906 6.375 -4.640625 C 4.832031 -5.523438 3.703125 -6.269531 2.984375 -6.875 L 1.90625 -7.78125 L 9.6875 -20.875 C 10.351562 -20.320312 11.265625 -19.613281 12.421875 -18.75 C 13.578125 -17.894531 15.628906 -16.75 18.578125 -15.3125 C 21.535156 -13.882812 24.148438 -13.171875 26.421875 -13.171875 C 32.984375 -13.171875 36.265625 -15.40625 36.265625 -19.875 C 36.265625 -20.8125 36.03125 -21.679688 35.5625 -22.484375 C 35.09375 -23.285156 34.265625 -24.085938 33.078125 -24.890625 C 31.890625 -25.691406 30.84375 -26.328125 29.9375 -26.796875 C 29.03125 -27.265625 27.539062 -27.976562 25.46875 -28.9375 C 23.394531 -29.90625 21.863281 -30.640625 20.875 -31.140625 C 16.726562 -33.179688 13.523438 -35.734375 11.265625 -38.796875 C 9.003906 -41.859375 7.875 -45.15625 7.875 -48.6875 C 7.875 -54.820312 10.132812 -59.832031 14.65625 -63.71875 C 19.1875 -67.613281 24.347656 -69.5625 30.140625 -69.5625 Z M 30.140625 -69.5625 "/></g></g></g><g clip-path="url(#630b72e95d)"><path fill="#e4e0d7" d="M 219.675781 162.503906 L 211.824219 162.503906 C 198.382812 159.59375 195.394531 156.589844 192.484375 143.113281 L 192.484375 135.558594 L 191.492188 135.558594 L 191.492188 143.191406 C 188.589844 156.601562 185.585938 159.597656 172.167969 162.503906 L 166.441406 162.503906 L 166.441406 163.5 L 172.167969 163.5 C 185.585938 166.40625 188.589844 169.402344 191.492188 182.8125 L 191.492188 190.308594 L 192.484375 190.308594 L 192.484375 182.894531 C 195.394531 169.414062 198.382812 166.414062 211.824219 163.5 L 219.675781 163.5 Z M 219.675781 162.503906 " fill-opacity="1" fill-rule="nonzero"/></g></svg>